<?xml version="1.0" encoding="utf-8"?>
<!-- Generator: Adobe Illustrator 25.3.1, SVG Export Plug-In . SVG Version: 6.00 Build 0)  -->
<svg version="1.1" id="Layer_1" xmlns="http://www.w3.org/2000/svg" xmlns:xlink="http://www.w3.org/1999/xlink" x="0px" y="0px"
	 viewBox="0 0 338.4 133.2" style="enable-background:new 0 0 338.4 133.2;" xml:space="preserve">
<style type="text/css">
	.st0{fill-rule:evenodd;clip-rule:evenodd;fill:#AA182C;}
	.st1{fill:#FFFFFF;}
	.st2{fill:#AA182C;}
</style>
<g>
	<path class="st0" d="M3.8,30.4c3.1,38.3,16.1,70.5,50.8,89.1c0,0,0.1,0,0.1,0.1c0,0,0.1,0,0.1-0.1c34.7-18.6,47.7-50.8,50.8-89.1
		L54.7,9.7L3.8,30.4z"/>
	<path class="st1" d="M69.9,68.5c2.2-1.3,4.1-2.9,5.5-4.9c2-2.7,3-6,3-10v-0.1c0-5.1-1.6-9.2-4.7-12.1c-1.7-1.8-4-3.2-6.8-4.2
		c-2.7-1-5.9-1.4-9.7-1.4H33.5v26.2h23.2c2.7,0,4.8-0.7,6.4-2c1.6-1.4,2.5-3.3,2.5-5.5v-0.1c0-3.1-1.5-4.9-2.7-5.8
		c-1.6-1.2-3.7-1.7-6.3-1.7H46.2v6.8h4.1v-2.7h6.3c1.7,0,3,0.3,3.8,0.9c0.4,0.3,1,0.9,1,2.4v0.1c0,1.1-0.3,1.8-1,2.4
		c-0.8,0.7-2.1,1-3.7,1H37.6V39.9h19.7c3.3,0,6.1,0.4,8.3,1.2c2.1,0.8,3.9,1.8,5.2,3.2c2.3,2.2,3.4,5.3,3.4,9.2v0.1
		c0,3.1-0.7,5.6-2.2,7.6c-1.5,2-3.5,3.6-6,4.6l-2.3,1l10.2,14.9h-9.7l-9.3-13.9l-8.7,0v13.9h-8.6v-9.8h3.8v-4.1h-8v18h16.8V71.9h2.4
		L62,85.8h19.7L69.9,68.5z"/>
</g>
<g>
	<rect x="122.8" y="88.5" class="st2" width="204.2" height="27"/>
	<g>
		<path d="M123.1,68.6h5.6c1.2,0,2.4,0.2,3.4,0.6c1,0.4,1.9,1,2.7,1.7c0.8,0.7,1.3,1.6,1.7,2.5c0.4,1,0.6,2,0.6,3.1v0
			c0,1.1-0.2,2.2-0.6,3.2c-0.4,1-1,1.8-1.7,2.5c-0.8,0.7-1.7,1.3-2.7,1.7c-1,0.4-2.2,0.6-3.4,0.6h-5.6V68.6z M128.7,82.9
			c1,0,1.9-0.2,2.7-0.5c0.8-0.3,1.5-0.8,2.1-1.3c0.6-0.6,1-1.2,1.3-2c0.3-0.8,0.5-1.6,0.5-2.5v0c0-0.9-0.2-1.7-0.5-2.5
			c-0.3-0.8-0.8-1.4-1.3-2c-0.6-0.6-1.3-1-2.1-1.3c-0.8-0.3-1.7-0.5-2.7-0.5h-3.7v12.7H128.7z"/>
		<path d="M157,68.6h11.6v1.6h-9.8v5.5h8.7v1.6h-8.7V83h9.9v1.6H157V68.6z"/>
		<path d="M188.3,68.6h11.5v1.7h-9.7V76h8.7v1.6h-8.7v7h-1.8V68.6z"/>
		<path d="M219.3,68.6h11.6v1.6h-9.8v5.5h8.7v1.6h-8.7V83h9.9v1.6h-11.7V68.6z"/>
		<path d="M250.6,68.6h1.7l10.1,12.8V68.6h1.8v16h-1.4l-10.3-13.1v13.1h-1.8V68.6z"/>
		<path d="M290.1,84.8c-1.3,0-2.4-0.2-3.5-0.6c-1.1-0.4-2.1-1.1-3-1.9l1.1-1.3c0.8,0.8,1.7,1.3,2.5,1.7c0.9,0.4,1.8,0.6,2.9,0.6
			c1.1,0,1.9-0.3,2.6-0.8c0.6-0.5,1-1.2,1-2v0c0-0.4-0.1-0.7-0.2-1c-0.1-0.3-0.3-0.6-0.6-0.8c-0.3-0.2-0.7-0.5-1.3-0.7
			c-0.5-0.2-1.2-0.4-2.1-0.6c-0.9-0.2-1.7-0.4-2.4-0.7c-0.7-0.3-1.2-0.6-1.7-0.9s-0.8-0.8-1-1.3c-0.2-0.5-0.3-1.1-0.3-1.7v0
			c0-0.6,0.1-1.2,0.4-1.7c0.3-0.5,0.6-1,1.1-1.4c0.5-0.4,1-0.7,1.7-0.9c0.6-0.2,1.3-0.3,2.1-0.3c1.2,0,2.2,0.2,3.1,0.5
			c0.9,0.3,1.7,0.8,2.5,1.5l-1.1,1.4c-0.7-0.6-1.5-1.1-2.3-1.3c-0.8-0.3-1.5-0.4-2.4-0.4c-1.1,0-1.9,0.2-2.5,0.7
			c-0.6,0.5-0.9,1.1-0.9,1.8v0c0,0.4,0.1,0.7,0.2,1c0.1,0.3,0.3,0.6,0.7,0.8s0.8,0.5,1.3,0.7c0.6,0.2,1.3,0.4,2.2,0.6
			c1.8,0.4,3.1,0.9,3.9,1.6c0.8,0.7,1.3,1.7,1.3,2.9v0c0,0.7-0.1,1.3-0.4,1.9c-0.3,0.6-0.6,1-1.1,1.4c-0.5,0.4-1,0.7-1.7,0.9
			C291.7,84.7,290.9,84.8,290.1,84.8z"/>
		<path d="M315.3,68.6h11.6v1.6h-9.8v5.5h8.7v1.6h-8.7V83h9.9v1.6h-11.7V68.6z"/>
	</g>
	<g>
		<path class="st2" d="M123.1,21.2H141c2.9,0,5.4,0.4,7.4,1.1c2,0.7,3.7,1.7,4.9,3c2.2,2.2,3.4,5.1,3.4,8.8v0.1
			c0,2.9-0.7,5.3-2.1,7.3c-1.4,1.9-3.3,3.4-5.7,4.4l9,13.2h-12.1l-7.6-11.5h-0.1h-4.5v11.5h-10.5V21.2z M140.5,39.4
			c1.8,0,3.2-0.4,4.2-1.2c1-0.8,1.5-1.9,1.5-3.3v-0.1c0-1.5-0.5-2.6-1.5-3.4c-1-0.7-2.4-1.1-4.2-1.1h-6.9v9.1H140.5z"/>
		<path class="st2" d="M175.1,20.9h10.1l16.1,38.2h-11.3l-2.8-6.8h-14.6l-2.7,6.8h-11L175.1,20.9z M184.3,44.2l-4.2-10.8l-4.3,10.8
			H184.3z"/>
		<path class="st2" d="M205.1,21.2h14.6c3.4,0,6.4,0.5,9.1,1.4c2.7,0.9,4.9,2.2,6.7,3.9c1.8,1.7,3.2,3.6,4.2,5.9
			c1,2.3,1.4,4.8,1.4,7.6V40c0,2.7-0.5,5.3-1.5,7.6c-1,2.3-2.4,4.3-4.2,6c-1.8,1.7-4.1,3-6.8,4c-2.7,1-5.7,1.4-9.1,1.4h-14.4V21.2z
			 M219.9,49.8c3.2,0,5.7-0.8,7.6-2.5c1.9-1.7,2.9-4,2.9-7.1v-0.1c0-3-1-5.4-2.9-7.1c-1.9-1.7-4.5-2.5-7.6-2.5h-4.3v19.3H219.9z"/>
		<path class="st2" d="M265.6,59.9c-2.9,0-5.6-0.5-8.1-1.5c-2.5-1-4.6-2.4-6.4-4.2c-1.8-1.8-3.2-3.8-4.3-6.2s-1.5-4.9-1.5-7.6v-0.1
			c0-2.7,0.5-5.3,1.5-7.7s2.5-4.5,4.3-6.3c1.8-1.8,4-3.2,6.5-4.2c2.5-1,5.2-1.5,8.1-1.5c2.9,0,5.6,0.5,8.1,1.5
			c2.5,1,4.6,2.4,6.4,4.2c1.8,1.8,3.2,3.8,4.3,6.2c1,2.4,1.5,4.9,1.5,7.6v0.1c0,2.7-0.5,5.3-1.5,7.7c-1,2.4-2.5,4.5-4.3,6.3
			c-1.8,1.8-4,3.2-6.5,4.2C271.2,59.3,268.5,59.9,265.6,59.9z M265.6,50.4c1.4,0,2.8-0.3,4-0.8c1.2-0.5,2.2-1.3,3-2.2
			c0.8-0.9,1.5-2,2-3.2c0.5-1.2,0.7-2.5,0.7-3.9v-0.1c0-1.4-0.2-2.7-0.7-3.9c-0.5-1.2-1.1-2.3-2-3.2c-0.9-0.9-1.9-1.7-3.1-2.2
			c-1.2-0.6-2.5-0.8-4-0.8c-1.4,0-2.8,0.3-3.9,0.8c-1.2,0.5-2.2,1.3-3,2.2c-0.9,0.9-1.5,2-2,3.2c-0.5,1.2-0.7,2.5-0.7,3.9v0.1
			c0,1.4,0.2,2.7,0.7,3.9c0.5,1.2,1.1,2.3,2,3.2c0.9,0.9,1.9,1.7,3.1,2.2S264.2,50.4,265.6,50.4z"/>
		<path class="st2" d="M291.5,21.2h9.8l15.6,20v-20h10.3v37.9h-9.2l-16.2-20.8v20.8h-10.3V21.2z"/>
	</g>
	<path class="st1" d="M143,113.3V98.5l-6.3,9.7h-0.1l-6.3-9.6v14.7h-4.9V90.7h5.3l5.9,9.6l5.9-9.6h5.3v22.6H143z"/>
	<path class="st1" d="M160.1,113.3V90.7h5v22.6H160.1z"/>
	<path class="st1" d="M198.2,106.5c-0.6,1.4-1.4,2.6-2.5,3.6c-1.1,1-2.3,1.8-3.8,2.4c-1.5,0.6-3.1,0.9-4.8,0.9h-8.8V90.7h8.8
		c1.8,0,3.4,0.3,4.8,0.9c1.5,0.6,2.7,1.4,3.8,2.4c1.1,1,1.9,2.2,2.5,3.6c0.6,1.4,0.9,2.8,0.9,4.4v0.1
		C199.1,103.6,198.8,105.1,198.2,106.5z M193.9,102c0-1-0.2-1.9-0.5-2.7c-0.3-0.8-0.8-1.6-1.4-2.2c-0.6-0.6-1.3-1.1-2.1-1.4
		c-0.8-0.3-1.8-0.5-2.8-0.5h-3.8v13.6h3.8c1,0,1.9-0.2,2.8-0.5c0.8-0.3,1.6-0.8,2.1-1.4c0.6-0.6,1.1-1.3,1.4-2.1
		C193.7,104,193.9,103.1,193.9,102L193.9,102z"/>
	<path class="st1" d="M233.7,113.5h-4.3l-5.1-14.8l-5.1,14.8h-4.3l-7.7-22.8h5.3l4.7,15.3l5.1-15.4h4.2l5.1,15.4l4.7-15.3h5.2
		L233.7,113.5z"/>
	<path class="st1" d="M250.3,113.3V90.7h17v4.4h-12.1v4.6h10.6v4.4h-10.6v4.7h12.2v4.4H250.3z"/>
	<path class="st1" d="M294.5,109.6c-0.4,0.9-1,1.6-1.7,2.2c-0.7,0.6-1.6,1-2.6,1.4c-1,0.3-2.1,0.5-3.3,0.5c-1.7,0-3.4-0.3-5.1-0.9
		c-1.7-0.6-3.2-1.5-4.5-2.7l2.9-3.5c1,0.8,2.1,1.5,3.2,2c1.1,0.5,2.3,0.7,3.6,0.7c1,0,1.8-0.2,2.4-0.6c0.6-0.4,0.9-0.9,0.9-1.6V107
		c0-0.3-0.1-0.6-0.2-0.9c-0.1-0.2-0.3-0.5-0.7-0.7c-0.3-0.2-0.8-0.4-1.4-0.6c-0.6-0.2-1.4-0.4-2.3-0.7c-1.1-0.3-2.2-0.6-3.1-0.9
		c-0.9-0.3-1.7-0.8-2.4-1.3c-0.6-0.5-1.1-1.1-1.5-1.9c-0.4-0.8-0.5-1.7-0.5-2.8v-0.1c0-1,0.2-2,0.6-2.8c0.4-0.8,0.9-1.5,1.6-2.1
		c0.7-0.6,1.5-1.1,2.5-1.4c1-0.3,2-0.5,3.2-0.5c1.7,0,3.2,0.2,4.6,0.7c1.4,0.5,2.7,1.2,3.8,2.1l-2.6,3.7c-1-0.7-2-1.2-3-1.6
		c-1-0.4-1.9-0.6-2.9-0.6c-1,0-1.7,0.2-2.2,0.6c-0.5,0.4-0.7,0.8-0.7,1.4v0.1c0,0.4,0.1,0.7,0.2,1c0.1,0.3,0.4,0.5,0.8,0.7
		c0.4,0.2,0.9,0.4,1.5,0.6c0.6,0.2,1.4,0.4,2.4,0.7c1.1,0.3,2.2,0.6,3,1s1.6,0.8,2.3,1.4c0.6,0.5,1.1,1.1,1.4,1.9
		c0.3,0.7,0.5,1.6,0.5,2.6v0.1C295.1,107.7,294.9,108.7,294.5,109.6z"/>
	<path class="st1" d="M317.5,95.3v18h-5v-18h-6.9v-4.6h18.7v4.6H317.5z"/>
</g>
</svg>
