<svg xmlns="http://www.w3.org/2000/svg" width="73.923" height="73.923"><defs><style>.a{fill:#c8102e;stroke:#c8102e}</style></defs><path class="a" d="M36.962 73.423a36.461 36.461 0 1 1 36.465-36.462 36.5 36.5 0 0 1-36.465 36.462Zm0-69.34a32.879 32.879 0 1 0 32.879 32.879A32.916 32.916 0 0 0 36.962 4.083Z"/><g transform="translate(20.213 21.34)"><path class="a" d="M16.745 36.636c-7.991 0-14.492-5.87-14.492-13.084a1.7 1.7 0 0 1 3.383 0c0 5.53 4.983 10.029 11.108 10.029s11.108-4.5 11.108-10.029a1.7 1.7 0 0 1 3.383 0c.005 7.215-6.496 13.084-14.49 13.084Z"/><circle class="a" cx="5.739" cy="5.739" r="5.739"/><circle class="a" cx="5.739" cy="5.739" r="5.739" transform="translate(22.018)"/></g></svg>