<svg xmlns="http://www.w3.org/2000/svg" width="85.19" height="81.104"><path d="m273.381 276.164 12.134-12.134a1.561 1.561 0 0 0-1.1-2.665h-38.039v-1.879a1.8 1.8 0 0 0-3.6 0v53.5a1.8 1.8 0 0 0 3.6 0v-22.024h38.035a1.561 1.561 0 0 0 1.1-2.665Zm-27.417-11.677h34.679L270.07 275.06a1.561 1.561 0 0 0 0 2.208l10.573 10.573h-34.679Z" transform="translate(-210.382 -256.935)" style="stroke:#c8102e;fill:#c8102e;stroke-width:1.5px"/><path d="M56.049 515.145 71.9 496.164l7.887 7.427 16.928-21.251 15.254 21.251 7.844-7.427 16.923 18.981Z" transform="translate(-53.799 -436.292)" style="fill:none;stroke-linecap:round;stroke-linejoin:round;stroke-width:4.5px;stroke:#c8102e"/></svg>