<svg version="1.1" id="Layer_1" xmlns="http://www.w3.org/2000/svg" x="0" y="0" viewBox="0 0 338.4 133.2" style="enable-background:new 0 0 338.4 133.2" xml:space="preserve"><style>.st1{fill:#fff}.st2{fill:#aa182c}</style><path d="M3.8 30.4c3.1 38.3 16.1 70.5 50.8 89.1 0 0 .1 0 .1.1 0 0 .1 0 .1-.1 34.7-18.6 47.7-50.8 50.8-89.1L54.7 9.7 3.8 30.4z" style="fill-rule:evenodd;clip-rule:evenodd;fill:#aa182c"/><path class="st1" d="M69.9 68.5c2.2-1.3 4.1-2.9 5.5-4.9 2-2.7 3-6 3-10v-.1c0-5.1-1.6-9.2-4.7-12.1-1.7-1.8-4-3.2-6.8-4.2-2.7-1-5.9-1.4-9.7-1.4H33.5V62h23.2c2.7 0 4.8-.7 6.4-2 1.6-1.4 2.5-3.3 2.5-5.5v-.1c0-3.1-1.5-4.9-2.7-5.8-1.6-1.2-3.7-1.7-6.3-1.7H46.2v6.8h4.1V51h6.3c1.7 0 3 .3 3.8.9.4.3 1 .9 1 2.4v.1c0 1.1-.3 1.8-1 2.4-.8.7-2.1 1-3.7 1H37.6V39.9h19.7c3.3 0 6.1.4 8.3 1.2 2.1.8 3.9 1.8 5.2 3.2 2.3 2.2 3.4 5.3 3.4 9.2v.1c0 3.1-.7 5.6-2.2 7.6-1.5 2-3.5 3.6-6 4.6l-2.3 1 10.2 14.9h-9.7l-9.3-13.9h-8.7v13.9h-8.6v-9.8h3.8v-4.1h-8v18h16.8V71.9h2.4L62 85.8h19.7L69.9 68.5z"/><path class="st2" d="M122.8 88.5H327v27H122.8z"/><path d="M123.1 68.6h5.6c1.2 0 2.4.2 3.4.6 1 .4 1.9 1 2.7 1.7.8.7 1.3 1.6 1.7 2.5.4 1 .6 2 .6 3.1s-.2 2.2-.6 3.2c-.4 1-1 1.8-1.7 2.5-.8.7-1.7 1.3-2.7 1.7-1 .4-2.2.6-3.4.6h-5.6V68.6zm5.6 14.3c1 0 1.9-.2 2.7-.5.8-.3 1.5-.8 2.1-1.3.6-.6 1-1.2 1.3-2 .3-.8.5-1.6.5-2.5 0-.9-.2-1.7-.5-2.5s-.8-1.4-1.3-2c-.6-.6-1.3-1-2.1-1.3-.8-.3-1.7-.5-2.7-.5H125V83h3.7zM157 68.6h11.6v1.6h-9.8v5.5h8.7v1.6h-8.7V83h9.9v1.6H157v-16zM188.3 68.6h11.5v1.7h-9.7V76h8.7v1.6h-8.7v7h-1.8v-16zM219.3 68.6h11.6v1.6h-9.8v5.5h8.7v1.6h-8.7V83h9.9v1.6h-11.7v-16zM250.6 68.6h1.7l10.1 12.8V68.6h1.8v16h-1.4l-10.3-13.1v13.1h-1.8v-16zM290.1 84.8c-1.3 0-2.4-.2-3.5-.6-1.1-.4-2.1-1.1-3-1.9l1.1-1.3c.8.8 1.7 1.3 2.5 1.7.9.4 1.8.6 2.9.6 1.1 0 1.9-.3 2.6-.8.6-.5 1-1.2 1-2 0-.4-.1-.7-.2-1-.1-.3-.3-.6-.6-.8-.3-.2-.7-.5-1.3-.7-.5-.2-1.2-.4-2.1-.6-.9-.2-1.7-.4-2.4-.7-.7-.3-1.2-.6-1.7-.9s-.8-.8-1-1.3c-.2-.5-.3-1.1-.3-1.7 0-.6.1-1.2.4-1.7.3-.5.6-1 1.1-1.4.5-.4 1-.7 1.7-.9.6-.2 1.3-.3 2.1-.3 1.2 0 2.2.2 3.1.5.9.3 1.7.8 2.5 1.5l-1.1 1.4c-.7-.6-1.5-1.1-2.3-1.3-.8-.3-1.5-.4-2.4-.4-1.1 0-1.9.2-2.5.7-.6.5-.9 1.1-.9 1.8 0 .4.1.7.2 1 .1.3.3.6.7.8s.8.5 1.3.7c.6.2 1.3.4 2.2.6 1.8.4 3.1.9 3.9 1.6.8.7 1.3 1.7 1.3 2.9 0 .7-.1 1.3-.4 1.9-.3.6-.6 1-1.1 1.4-.5.4-1 .7-1.7.9-.5.2-1.3.3-2.1.3zM315.3 68.6h11.6v1.6h-9.8v5.5h8.7v1.6h-8.7V83h9.9v1.6h-11.7v-16z"/><path class="st2" d="M123.1 21.2H141c2.9 0 5.4.4 7.4 1.1 2 .7 3.7 1.7 4.9 3 2.2 2.2 3.4 5.1 3.4 8.8v.1c0 2.9-.7 5.3-2.1 7.3-1.4 1.9-3.3 3.4-5.7 4.4l9 13.2h-12.1l-7.6-11.5h-4.6v11.5h-10.5V21.2zm17.4 18.2c1.8 0 3.2-.4 4.2-1.2 1-.8 1.5-1.9 1.5-3.3v-.1c0-1.5-.5-2.6-1.5-3.4-1-.7-2.4-1.1-4.2-1.1h-6.9v9.1h6.9zM175.1 20.9h10.1l16.1 38.2H190l-2.8-6.8h-14.6l-2.7 6.8h-11l16.2-38.2zm9.2 23.3-4.2-10.8-4.3 10.8h8.5zM205.1 21.2h14.6c3.4 0 6.4.5 9.1 1.4 2.7.9 4.9 2.2 6.7 3.9 1.8 1.7 3.2 3.6 4.2 5.9 1 2.3 1.4 4.8 1.4 7.6 0 2.7-.5 5.3-1.5 7.6s-2.4 4.3-4.2 6c-1.8 1.7-4.1 3-6.8 4s-5.7 1.4-9.1 1.4h-14.4V21.2zm14.8 28.6c3.2 0 5.7-.8 7.6-2.5 1.9-1.7 2.9-4 2.9-7.1v-.1c0-3-1-5.4-2.9-7.1-1.9-1.7-4.5-2.5-7.6-2.5h-4.3v19.3h4.3zM265.6 59.9c-2.9 0-5.6-.5-8.1-1.5s-4.6-2.4-6.4-4.2c-1.8-1.8-3.2-3.8-4.3-6.2s-1.5-4.9-1.5-7.6v-.1c0-2.7.5-5.3 1.5-7.7s2.5-4.5 4.3-6.3c1.8-1.8 4-3.2 6.5-4.2s5.2-1.5 8.1-1.5c2.9 0 5.6.5 8.1 1.5s4.6 2.4 6.4 4.2c1.8 1.8 3.2 3.8 4.3 6.2 1 2.4 1.5 4.9 1.5 7.6v.1c0 2.7-.5 5.3-1.5 7.7-1 2.4-2.5 4.5-4.3 6.3-1.8 1.8-4 3.2-6.5 4.2-2.5.9-5.2 1.5-8.1 1.5zm0-9.5c1.4 0 2.8-.3 4-.8 1.2-.5 2.2-1.3 3-2.2.8-.9 1.5-2 2-3.2.5-1.2.7-2.5.7-3.9v-.1c0-1.4-.2-2.7-.7-3.9-.5-1.2-1.1-2.3-2-3.2-.9-.9-1.9-1.7-3.1-2.2-1.2-.6-2.5-.8-4-.8-1.4 0-2.8.3-3.9.8-1.2.5-2.2 1.3-3 2.2-.9.9-1.5 2-2 3.2-.5 1.2-.7 2.5-.7 3.9v.1c0 1.4.2 2.7.7 3.9.5 1.2 1.1 2.3 2 3.2.9.9 1.9 1.7 3.1 2.2s2.5.8 3.9.8zM291.5 21.2h9.8l15.6 20v-20h10.3v37.9H318l-16.2-20.8v20.8h-10.3V21.2z"/><path class="st1" d="M143 113.3V98.5l-6.3 9.7h-.1l-6.3-9.6v14.7h-4.9V90.7h5.3l5.9 9.6 5.9-9.6h5.3v22.6H143zM160.1 113.3V90.7h5v22.6h-5zM198.2 106.5c-.6 1.4-1.4 2.6-2.5 3.6s-2.3 1.8-3.8 2.4c-1.5.6-3.1.9-4.8.9h-8.8V90.7h8.8c1.8 0 3.4.3 4.8.9 1.5.6 2.7 1.4 3.8 2.4 1.1 1 1.9 2.2 2.5 3.6.6 1.4.9 2.8.9 4.4v.1c0 1.5-.3 3-.9 4.4zm-4.3-4.5c0-1-.2-1.9-.5-2.7-.3-.8-.8-1.6-1.4-2.2-.6-.6-1.3-1.1-2.1-1.4-.8-.3-1.8-.5-2.8-.5h-3.8v13.6h3.8c1 0 1.9-.2 2.8-.5.8-.3 1.6-.8 2.1-1.4.6-.6 1.1-1.3 1.4-2.1.3-.8.5-1.7.5-2.8zM233.7 113.5h-4.3l-5.1-14.8-5.1 14.8h-4.3l-7.7-22.8h5.3l4.7 15.3 5.1-15.4h4.2l5.1 15.4 4.7-15.3h5.2l-7.8 22.8zM250.3 113.3V90.7h17v4.4h-12.1v4.6h10.6v4.4h-10.6v4.7h12.2v4.4h-17.1zM294.5 109.6c-.4.9-1 1.6-1.7 2.2-.7.6-1.6 1-2.6 1.4-1 .3-2.1.5-3.3.5-1.7 0-3.4-.3-5.1-.9-1.7-.6-3.2-1.5-4.5-2.7l2.9-3.5c1 .8 2.1 1.5 3.2 2s2.3.7 3.6.7c1 0 1.8-.2 2.4-.6.6-.4.9-.9.9-1.6v-.1c0-.3-.1-.6-.2-.9-.1-.2-.3-.5-.7-.7-.3-.2-.8-.4-1.4-.6-.6-.2-1.4-.4-2.3-.7-1.1-.3-2.2-.6-3.1-.9-.9-.3-1.7-.8-2.4-1.3-.6-.5-1.1-1.1-1.5-1.9-.4-.8-.5-1.7-.5-2.8v-.1c0-1 .2-2 .6-2.8.4-.8.9-1.5 1.6-2.1.7-.6 1.5-1.1 2.5-1.4 1-.3 2-.5 3.2-.5 1.7 0 3.2.2 4.6.7 1.4.5 2.7 1.2 3.8 2.1l-2.6 3.7c-1-.7-2-1.2-3-1.6-1-.4-1.9-.6-2.9-.6s-1.7.2-2.2.6c-.5.4-.7.8-.7 1.4v.1c0 .4.1.7.2 1 .1.3.4.5.8.7.4.2.9.4 1.5.6.6.2 1.4.4 2.4.7 1.1.3 2.2.6 3 1s1.6.8 2.3 1.4c.6.5 1.1 1.1 1.4 1.9.3.7.5 1.6.5 2.6v.1c-.1 1-.3 2-.7 2.9zM317.5 95.3v18h-5v-18h-6.9v-4.6h18.7v4.6h-6.8z"/></svg>